<svg xmlns="http://www.w3.org/2000/svg" viewBox="0 0 800 600" width="800" height="600">
<defs>
<radialGradient id="bg" cx="0.3" cy="0.2" r="1.1"><stop offset="0" stop-color="#4f8796"/><stop offset="0.55" stop-color="#22474d"/><stop offset="1" stop-color="#0d2120"/></radialGradient>
<linearGradient id="acc" x1="0" y1="0" x2="0" y2="1"><stop offset="0" stop-color="#6ec9ca"/><stop offset="1" stop-color="#55a2e6"/></linearGradient>
<linearGradient id="accH" x1="0" y1="0" x2="1" y2="0"><stop offset="0" stop-color="#6ec9ca"/><stop offset="1" stop-color="#55a2e6"/></linearGradient>
<filter id="sh" x="-20%" y="-20%" width="140%" height="160%"><feDropShadow dx="0" dy="14" stdDeviation="18" flood-color="#031010" flood-opacity="0.45"/></filter>
</defs>
<rect width="800" height="600" fill="url(#bg)"/>
<defs><linearGradient id="c0" x1="0" y1="0" x2="1" y2="1"><stop offset="0" stop-color="#3b7f8a"/><stop offset="1" stop-color="#173f44"/></linearGradient><linearGradient id="c1" x1="0" y1="0" x2="1" y2="1"><stop offset="0" stop-color="#5a9fe0"/><stop offset="1" stop-color="#2f5f99"/></linearGradient></defs><g transform="rotate(-8 400 260)" filter="url(#sh)"><rect x="210" y="150" width="380" height="230" rx="22" fill="url(#c0)"/><rect x="240" y="180" width="46" height="34" rx="7" fill="#ffffff" fill-opacity="0.55"/><g fill="#ffffff" fill-opacity="0.85"><circle cx="244" cy="300" r="4.5"/><circle cx="258" cy="300" r="4.5"/><circle cx="272" cy="300" r="4.5"/><circle cx="286" cy="300" r="4.5"/></g><g fill="#ffffff" fill-opacity="0.85"><circle cx="322" cy="300" r="4.5"/><circle cx="336" cy="300" r="4.5"/><circle cx="350" cy="300" r="4.5"/><circle cx="364" cy="300" r="4.5"/></g><g fill="#ffffff" fill-opacity="0.85"><circle cx="400" cy="300" r="4.5"/><circle cx="414" cy="300" r="4.5"/><circle cx="428" cy="300" r="4.5"/><circle cx="442" cy="300" r="4.5"/></g><g fill="#ffffff" fill-opacity="0.85"><circle cx="478" cy="300" r="4.5"/><circle cx="492" cy="300" r="4.5"/><circle cx="506" cy="300" r="4.5"/><circle cx="520" cy="300" r="4.5"/></g><rect x="240" y="330" width="120" height="10" rx="5.0" fill="#ffffff" fill-opacity="0.6"/></g><g transform="rotate(-3 400 320)" filter="url(#sh)"><rect x="210" y="210" width="380" height="230" rx="22" fill="url(#c1)"/><rect x="240" y="240" width="46" height="34" rx="7" fill="#ffffff" fill-opacity="0.55"/><g fill="#ffffff" fill-opacity="0.85"><circle cx="244" cy="360" r="4.5"/><circle cx="258" cy="360" r="4.5"/><circle cx="272" cy="360" r="4.5"/><circle cx="286" cy="360" r="4.5"/></g><g fill="#ffffff" fill-opacity="0.85"><circle cx="322" cy="360" r="4.5"/><circle cx="336" cy="360" r="4.5"/><circle cx="350" cy="360" r="4.5"/><circle cx="364" cy="360" r="4.5"/></g><g fill="#ffffff" fill-opacity="0.85"><circle cx="400" cy="360" r="4.5"/><circle cx="414" cy="360" r="4.5"/><circle cx="428" cy="360" r="4.5"/><circle cx="442" cy="360" r="4.5"/></g><g fill="#ffffff" fill-opacity="0.85"><circle cx="478" cy="360" r="4.5"/><circle cx="492" cy="360" r="4.5"/><circle cx="506" cy="360" r="4.5"/><circle cx="520" cy="360" r="4.5"/></g><rect x="240" y="390" width="120" height="10" rx="5.0" fill="#ffffff" fill-opacity="0.6"/></g><g transform="rotate(2 400 380)" filter="url(#sh)"><rect x="210" y="270" width="380" height="230" rx="22" fill="url(#accH)"/><rect x="240" y="300" width="46" height="34" rx="7" fill="#ffffff" fill-opacity="0.55"/><g fill="#ffffff" fill-opacity="0.85"><circle cx="244" cy="420" r="4.5"/><circle cx="258" cy="420" r="4.5"/><circle cx="272" cy="420" r="4.5"/><circle cx="286" cy="420" r="4.5"/></g><g fill="#ffffff" fill-opacity="0.85"><circle cx="322" cy="420" r="4.5"/><circle cx="336" cy="420" r="4.5"/><circle cx="350" cy="420" r="4.5"/><circle cx="364" cy="420" r="4.5"/></g><g fill="#ffffff" fill-opacity="0.85"><circle cx="400" cy="420" r="4.5"/><circle cx="414" cy="420" r="4.5"/><circle cx="428" cy="420" r="4.5"/><circle cx="442" cy="420" r="4.5"/></g><g fill="#ffffff" fill-opacity="0.85"><circle cx="478" cy="420" r="4.5"/><circle cx="492" cy="420" r="4.5"/><circle cx="506" cy="420" r="4.5"/><circle cx="520" cy="420" r="4.5"/></g><rect x="240" y="450" width="120" height="10" rx="5.0" fill="#ffffff" fill-opacity="0.6"/></g>
</svg>