<svg xmlns="http://www.w3.org/2000/svg" viewBox="0 0 320 320" width="320" height="320">
<defs><radialGradient id="bg" cx="0.35" cy="0.28" r="0.9"><stop offset="0" stop-color="#f3f6f1"/><stop offset="1" stop-color="#d6e6df"/></radialGradient>
<linearGradient id="t" x1="0" y1="0" x2="1" y2="1"><stop offset="0" stop-color="#22ad98"/><stop offset="1" stop-color="#0b6f61"/></linearGradient>
<filter id="s" x="-30%" y="-30%" width="160%" height="170%"><feDropShadow dx="0" dy="8" stdDeviation="10" flood-color="#0b3d35" flood-opacity="0.18"/></filter></defs>
<circle cx="160" cy="160" r="160" fill="url(#bg)"/>
<g filter="url(#s)"><path d="M150 182 C 190 182, 214 176, 252 150 L 266 170 C 226 198, 196 210, 150 210 Z" fill="#f2dfb4"/><path d="M156.0 184.0 l 0 12" stroke="#7a5a22" stroke-width="2.5" stroke-linecap="round" transform="rotate(-0.0 156.0 192.0)"/><path d="M167.8 182.2 l 0 8" stroke="#7a5a22" stroke-width="2.5" stroke-linecap="round" transform="rotate(-3.8 167.8 190.2)"/><path d="M179.5 179.1 l 0 12" stroke="#7a5a22" stroke-width="2.5" stroke-linecap="round" transform="rotate(-7.5 179.5 187.1)"/><path d="M191.2 175.4 l 0 8" stroke="#7a5a22" stroke-width="2.5" stroke-linecap="round" transform="rotate(-11.2 191.2 183.4)"/><path d="M203.0 171.1 l 0 12" stroke="#7a5a22" stroke-width="2.5" stroke-linecap="round" transform="rotate(-15.0 203.0 179.1)"/><path d="M214.8 166.4 l 0 8" stroke="#7a5a22" stroke-width="2.5" stroke-linecap="round" transform="rotate(-18.8 214.8 174.4)"/><path d="M226.5 161.3 l 0 12" stroke="#7a5a22" stroke-width="2.5" stroke-linecap="round" transform="rotate(-22.5 226.5 169.3)"/><path d="M238.2 155.8 l 0 8" stroke="#7a5a22" stroke-width="2.5" stroke-linecap="round" transform="rotate(-26.2 238.2 163.8)"/><path d="M250.0 150.0 l 0 12" stroke="#7a5a22" stroke-width="2.5" stroke-linecap="round" transform="rotate(-30.0 250.0 158.0)"/><rect x="252" y="146" width="18" height="30" rx="4" fill="#0b6f61" transform="rotate(-34 261 161)"/><rect x="62" y="122" width="112" height="112" rx="30" fill="url(#t)"/><circle cx="118" cy="178" r="30" fill="none" stroke="#ffffff" stroke-opacity="0.9" stroke-width="7"/><circle cx="118" cy="178" r="8" fill="#ffffff"/></g>
</svg>